<svg width="15" height="28" viewBox="0 0 15 28" fill="none" xmlns="http://www.w3.org/2000/svg">
<g clip-path="url(#clip0_1_735)">
<path d="M0.431627 2.53684C0.178009 2.29983 0.0233323 1.96257 0.00242745 1.60104C-0.0184751 1.23952 0.0963144 0.884189 0.320666 0.615016C0.545197 0.345853 0.860456 0.185592 1.19543 0.170169C1.53057 0.154745 1.85736 0.285658 2.10208 0.533383L14.587 12.6673C14.8498 12.9231 15 13.2869 15 13.6689C15 14.051 14.85 14.4149 14.5872 14.6705L2.10225 26.8045C1.85751 27.0522 1.53059 27.1829 1.19543 27.1677C0.860469 27.1523 0.545188 26.992 0.320666 26.7229C0.0963144 26.4537 -0.0184773 26.0982 0.00242745 25.7368C0.0233301 25.3753 0.178009 25.038 0.431627 24.801L11.8856 13.6691L0.431627 2.53684Z" fill="white"/>
<path d="M0.431627 2.53684C0.178009 2.29983 0.0233323 1.96257 0.00242745 1.60104C-0.0184751 1.23952 0.0963144 0.884189 0.320666 0.615016C0.545197 0.345853 0.860456 0.185592 1.19543 0.170169C1.53057 0.154745 1.85736 0.285658 2.10208 0.533383L14.587 12.6673C14.8498 12.9231 15 13.2869 15 13.6689C15 14.051 14.85 14.4149 14.5872 14.6705L2.10225 26.8045C1.85751 27.0522 1.53059 27.1829 1.19543 27.1677C0.860469 27.1523 0.545188 26.992 0.320666 26.7229C0.0963144 26.4537 -0.0184773 26.0982 0.00242745 25.7368C0.0233301 25.3753 0.178009 25.038 0.431627 24.801L11.8856 13.6691L0.431627 2.53684Z" fill="black"/>
</g>
<defs>
<clipPath id="clip0_1_735">
<rect width="15" height="27" fill="white" transform="translate(0 0.168945)"/>
</clipPath>
</defs>
</svg>
