<svg width="36" height="44" viewBox="0 0 36 44" fill="none" xmlns="http://www.w3.org/2000/svg">
<path d="M0.18498 21.9449C0.141208 11.1081 8.77445 1.50883 16.0826 1.03257C18.7224 0.844681 22.1156 2.05913 24.0967 2.92427C25.5352 3.55249 28.4717 2.64317 28.9932 0.974915H29.2775V15.7367H28.9932C28.9932 15.1073 26.272 1.40371 16.0826 1.40371C8.55644 1.40371 7.82931 14.6988 7.82931 21.9449C7.82931 29.1911 8.0486 43.536 16.8313 43.536C21.0859 43.536 24.2352 41.6659 25.0516 37.8828V26.3796H21.4804V25.8896H35.3229V26.3796H31.9088V43.1972H31.6308C31.6308 43.1972 31.0757 40.7706 28.2591 40.7787C24.6592 40.789 21.2643 43.9311 17.1258 43.8928C6.18129 43.7917 0.228894 32.7818 0.18498 21.9449Z" fill="black"/>
</svg>
