<svg width="15" height="14" viewBox="0 0 15 14" fill="none" xmlns="http://www.w3.org/2000/svg">
<path d="M7.64046 4.65591C6.3551 4.65591 5.30617 5.70487 5.30617 6.99023C5.30617 8.2756 6.3551 9.32456 7.64046 9.32456C8.9258 9.32456 9.97473 8.2756 9.97473 6.99023C9.97473 5.70487 8.9258 4.65591 7.64046 4.65591ZM14.6415 6.99023C14.6415 6.02358 14.6503 5.06569 14.596 4.10079C14.5418 2.98003 14.286 1.98535 13.4666 1.1658C12.6452 0.344494 11.6523 0.0905727 10.5316 0.036286C9.56497 -0.0180007 8.60709 -0.00924475 7.64221 -0.00924475C6.67556 -0.00924475 5.71768 -0.0180007 4.7528 0.036286C3.63207 0.0905727 2.63742 0.346245 1.81788 1.1658C0.996588 1.9871 0.74267 2.98003 0.688385 4.10079C0.634099 5.06744 0.642855 6.02533 0.642855 6.99023C0.642855 7.95514 0.634099 8.91478 0.688385 9.87968C0.74267 11.0004 0.998339 11.9951 1.81788 12.8147C2.63917 13.6359 3.63207 13.8899 4.7528 13.9441C5.71945 13.9985 6.67731 13.9898 7.64221 13.9898C8.60884 13.9898 9.56672 13.9985 10.5316 13.9441C11.6523 13.8899 12.647 13.6342 13.4666 12.8147C14.2878 11.9934 14.5418 11.0004 14.596 9.87968C14.652 8.91478 14.6415 7.95689 14.6415 6.99023ZM7.64046 10.5819C5.6529 10.5819 4.04884 8.97783 4.04884 6.99023C4.04884 5.00264 5.6529 3.39856 7.64046 3.39856C9.62801 3.39856 11.2321 5.00264 11.2321 6.99023C11.2321 8.97783 9.62801 10.5819 7.64046 10.5819ZM11.3792 4.09027C10.9151 4.09027 10.5404 3.71552 10.5404 3.25145C10.5404 2.7874 10.9151 2.41264 11.3792 2.41264C11.8432 2.41264 12.218 2.7874 12.218 3.25145C12.2181 3.36166 12.1965 3.47079 12.1544 3.57262C12.1123 3.67445 12.0505 3.76698 11.9726 3.8449C11.8947 3.92282 11.8022 3.9846 11.7003 4.0267C11.5985 4.06881 11.4893 4.09041 11.3792 4.09027Z" fill="white" fill-opacity="0.9"/>
</svg>
