<svg width="40" height="10" viewBox="0 0 40 10" fill="none" xmlns="http://www.w3.org/2000/svg">
<path d="M7.54494 0.301758H5.55977C5.55977 1.93084 4.812 3.41748 3.5123 4.39671L2.72891 4.98425L5.77342 9.13262H8.27491L5.47075 5.31363C6.79716 3.99612 7.54494 2.2157 7.54494 0.301758ZM0.449982 0.301758H2.47966V9.13262H0.449982V0.301758ZM8.86244 0.301758H10.7764V9.13262H8.86244V0.301758ZM27.5657 2.85665C26.8357 2.85665 26.1414 3.07921 25.6785 3.71125V3.02579H23.8624V9.13262H25.7052V5.92787C25.7052 5.00205 26.3283 4.54805 27.0761 4.54805C27.8773 4.54805 28.3402 5.02876 28.3402 5.91897V9.14152H30.1651V5.25131C30.1651 3.82698 29.0346 2.85665 27.5657 2.85665ZM16.5627 3.02579V3.41748C16.0464 3.0614 15.4233 2.85665 14.7467 2.85665C12.9663 2.85665 11.5242 4.29879 11.5242 6.07921C11.5242 7.85962 12.9663 9.30176 14.7467 9.30176C15.4233 9.30176 16.0464 9.09701 16.5627 8.74093V9.13262H18.3877V3.02579H16.5627ZM14.8981 7.64597C13.9811 7.64597 13.2423 6.94271 13.2423 6.07921C13.2423 5.2157 13.9811 4.51244 14.8981 4.51244C15.815 4.51244 16.5538 5.2157 16.5538 6.07921C16.5538 6.94271 15.815 7.64597 14.8981 7.64597ZM21.2185 3.81808V3.02579H19.3491V9.13262H21.2274V6.28395C21.2274 5.32253 22.269 4.80621 22.99 4.80621H23.0078V3.02579C22.269 3.02579 21.5835 3.34627 21.2185 3.81808ZM35.8446 3.02579V3.41748C35.3283 3.0614 34.7052 2.85665 34.0286 2.85665C32.2482 2.85665 30.8061 4.29879 30.8061 6.07921C30.8061 7.85962 32.2482 9.30176 34.0286 9.30176C34.7052 9.30176 35.3283 9.09701 35.8446 8.74093V9.13262H37.6696V3.02579H35.8446ZM34.18 7.64597C33.263 7.64597 32.5242 6.94271 32.5242 6.07921C32.5242 5.2157 33.263 4.51244 34.18 4.51244C35.0969 4.51244 35.8357 5.2157 35.8357 6.07921C35.8446 6.94271 35.0969 7.64597 34.18 7.64597ZM39.085 3.20384C39.085 3.11481 39.0227 3.0614 38.9248 3.0614H38.7556V3.52431H38.8357V3.35517H38.9248L38.996 3.52431H39.085L39.0049 3.33737C39.0583 3.31066 39.085 3.26615 39.085 3.20384ZM38.9248 3.27505H38.8357V3.13262H38.9248C38.9782 3.13262 39.0049 3.15932 39.0049 3.20384C39.0049 3.24835 38.9871 3.27505 38.9248 3.27505Z" fill="black"/>
</svg>
