<svg width="15" height="14" viewBox="0 0 15 14" fill="none" xmlns="http://www.w3.org/2000/svg">
<path fill-rule="evenodd" clip-rule="evenodd" d="M0.642334 1.11026C0.642334 0.81321 0.760337 0.52833 0.970383 0.318284C1.18043 0.108238 1.46531 -0.00976412 1.76236 -0.00976412H12.9273C13.0745 -0.0100051 13.2203 0.0187928 13.3564 0.0749788C13.4924 0.131166 13.6161 0.213638 13.7202 0.317674C13.8244 0.42171 13.907 0.54527 13.9633 0.68127C14.0196 0.81727 14.0486 0.96305 14.0485 1.11026V12.2752C14.0487 12.4225 14.0198 12.5683 13.9635 12.7044C13.9073 12.8404 13.8248 12.9641 13.7207 13.0682C13.6166 13.1724 13.493 13.255 13.357 13.3113C13.2209 13.3676 13.0751 13.3966 12.9279 13.3965H1.76236C1.61523 13.3965 1.46953 13.3675 1.3336 13.3112C1.19768 13.2548 1.07418 13.1723 0.970167 13.0682C0.866155 12.9641 0.783667 12.8406 0.727416 12.7046C0.671165 12.5687 0.642254 12.423 0.642334 12.2758V1.11026ZM5.94875 5.10166H7.76408V6.01328C8.02611 5.48922 8.69642 5.01757 9.70371 5.01757C11.6348 5.01757 12.0924 6.06142 12.0924 7.97668V11.5245H10.1382V8.41299C10.1382 7.32222 9.87617 6.70675 9.21073 6.70675C8.28753 6.70675 7.90362 7.37036 7.90362 8.41299V11.5245H5.94875V5.10166ZM2.5972 11.441H4.55207V5.01757H2.5972V11.441ZM4.83177 2.92254C4.83546 3.08992 4.80567 3.25635 4.74417 3.41206C4.68266 3.56777 4.59067 3.70963 4.4736 3.82931C4.35653 3.94899 4.21673 4.04408 4.06241 4.10899C3.90809 4.17391 3.74236 4.20735 3.57494 4.20735C3.40752 4.20735 3.24179 4.17391 3.08747 4.10899C2.93315 4.04408 2.79335 3.94899 2.67628 3.82931C2.5592 3.70963 2.46722 3.56777 2.40571 3.41206C2.34421 3.25635 2.31442 3.08992 2.31811 2.92254C2.32534 2.594 2.46093 2.28135 2.69585 2.05155C2.93076 1.82176 3.24632 1.69308 3.57494 1.69308C3.90356 1.69308 4.21912 1.82176 4.45403 2.05155C4.68894 2.28135 4.82454 2.594 4.83177 2.92254Z" fill="white" fill-opacity="0.9"/>
</svg>
