<svg width="165" height="41" viewBox="0 0 165 41" fill="none" xmlns="http://www.w3.org/2000/svg">
<mask id="mask0_1_859" style="mask-type:luminance" maskUnits="userSpaceOnUse" x="0" y="0" width="165" height="41">
<path d="M164.255 0.643433H0.425049V40.4747H164.255V0.643433Z" fill="white"/>
</mask>
<g mask="url(#mask0_1_859)">
<path d="M0.425049 7.81101H21.3134V22.6581H25.8187C25.8187 22.3509 25.8187 22.1462 25.9211 21.839C26.0235 20.5079 26.3307 19.2791 26.9451 18.1528C27.969 16.2073 29.5049 15.1834 31.6552 15.3882C32.4743 15.4906 33.1911 15.7977 33.6007 16.6169C34.215 17.7432 34.4198 18.9719 34.4198 20.2007C34.4198 23.8869 34.4198 27.4706 34.4198 31.1568C34.4198 31.3616 34.4198 31.5664 34.4198 31.7712H39.2324C39.2324 31.6688 39.2324 31.5664 39.2324 31.464C39.2324 27.4706 39.2324 23.4773 39.2324 19.4839C39.2324 18.3576 39.0276 17.3336 38.8228 16.2073C38.4132 14.2618 37.4917 12.6235 35.8533 11.5996C34.5222 10.7804 32.9863 10.5756 31.4504 10.678C29.1977 10.8828 27.3547 11.702 26.0235 13.6475C25.9211 13.7499 25.9211 13.7499 25.7164 13.8523V2.99849H0.425049V7.81101ZM94.0131 0.745826C93.9107 0.745826 93.8083 0.745826 93.8083 0.745826C92.17 0.745826 90.4293 0.745826 88.791 0.745826C88.6886 0.745826 88.4838 0.950614 88.3814 1.1554C87.9719 2.17934 87.6647 3.20328 87.2551 4.22722C83.9785 13.0331 80.8043 21.839 77.5277 30.6449C77.3229 31.0544 77.2205 31.5664 77.0157 32.0784C78.654 32.0784 80.2923 32.0784 81.8282 32.0784C81.9306 32.0784 82.1354 31.8736 82.2378 31.6688C83.057 29.5185 83.8761 27.4706 84.5929 25.3204C85.6168 22.5557 86.7431 19.6887 87.7671 16.9241C89.4054 12.6235 91.0437 8.32298 92.682 4.02243C93.194 2.8961 93.6035 1.87216 94.0131 0.745826ZM62.6806 0.643433C62.9877 1.46258 63.2949 2.17934 63.6021 2.99849C66.162 9.5517 68.7218 16.1049 71.2816 22.6581C71.384 22.8629 71.4864 22.9653 71.7936 22.9653C73.0223 22.9653 74.1487 22.9653 75.3774 22.9653C75.787 22.9653 76.1966 22.9653 76.7085 22.9653C74.4559 16.9241 72.2032 11.0876 70.0529 5.14877C70.3601 5.14877 70.4625 5.14877 70.6673 5.14877C73.1247 5.14877 75.6846 5.14877 78.1421 5.25116C78.5516 5.25116 78.654 5.14877 78.654 4.73919C78.654 3.61286 78.654 2.48652 78.654 1.36019C78.654 0.84822 78.5516 0.745826 78.0397 0.745826C73.1247 0.745826 68.2098 0.745826 63.1925 0.745826C63.0901 0.643432 62.9877 0.643433 62.6806 0.643433ZM138.657 22.9653H143.572V11.19H138.862V13.9546C135.073 8.63016 127.189 10.5756 125.141 15.3882C126.472 16.3097 127.701 17.2313 129.032 18.0504C130.363 15.4906 133.025 14.8762 135.175 15.5929C136.302 16.0025 137.223 16.7193 137.94 17.8456C138.964 19.4839 139.066 21.1222 138.657 22.9653ZM8.41178 11.702C8.41178 11.9068 8.41178 12.0092 8.41178 12.2139C8.41178 18.5624 8.41178 25.0132 8.41178 31.3616C8.41178 31.7712 8.51417 31.8736 8.92375 31.8736C10.1525 31.8736 11.3812 31.8736 12.6099 31.8736C13.0195 31.8736 13.2243 31.6688 13.2243 31.1568C13.2243 24.9108 13.2243 18.6648 13.2243 12.3163C13.2243 12.2139 13.2243 12.0092 13.2243 11.9068C13.1219 11.8044 13.0195 11.5996 12.9171 11.5996C11.3812 11.702 9.94769 11.702 8.41178 11.702ZM116.13 14.2618L116.028 14.1594C116.028 13.9546 116.028 13.8522 116.028 13.6475C116.028 13.0331 116.028 12.3163 116.028 11.702C116.028 11.19 115.925 11.0876 115.413 11.0876C114.185 11.0876 112.956 11.0876 111.727 11.0876C111.318 11.0876 111.113 11.19 111.113 11.702C111.113 15.2858 111.113 18.7672 111.113 22.3509C111.113 22.5557 111.113 22.6581 111.113 22.9653C112.649 22.9653 114.082 22.9653 115.618 22.9653C115.925 22.9653 115.925 22.7605 115.925 22.4533C116.028 21.5318 116.028 20.5079 116.13 19.5863C116.437 17.8456 117.359 16.7193 118.997 16.3097C120.226 16.0025 121.455 15.9001 122.683 16.1049C123.093 16.1049 123.195 16.0025 123.298 15.5929C123.298 14.4666 123.4 13.4427 123.4 12.3163C123.4 11.9068 123.4 11.3948 123.4 10.9852C120.328 10.5756 117.769 11.19 116.13 14.2618ZM94.0131 12.1116C94.0131 12.2139 94.0131 12.2139 94.0131 12.3163C94.7299 13.3403 95.3442 14.4666 96.061 15.4906C96.1634 15.5929 96.3682 15.5929 96.4706 15.5929C97.4945 15.081 98.6208 14.9786 99.7472 15.1834C101.795 15.4906 103.126 17.3336 103.229 19.5863H98.6208V22.9653C98.7232 22.9653 98.7232 22.9653 98.7232 22.9653C101.59 22.9653 104.457 22.9653 107.427 23.0677C107.734 23.0677 107.836 22.8629 107.836 22.5557C107.836 21.5318 107.836 20.5079 107.734 19.4839C107.529 17.3336 106.812 15.3882 105.379 13.7499C103.945 12.1116 102.102 11.3948 100.054 11.0876C97.9041 10.7804 95.8562 11.0876 94.0131 12.1116ZM48.4478 15.5929C49.5741 14.9786 50.7005 14.8762 51.8268 14.9786C53.7723 15.081 55.6154 17.2312 55.4106 19.3815H50.9053V22.8629C51.11 22.8629 51.3148 22.8629 51.5196 22.8629C53.6699 22.8629 55.8202 22.8629 58.0728 22.8629C58.5848 22.8629 59.0968 22.8629 59.7111 22.9653C60.1207 22.9653 60.2231 22.7605 60.2231 22.3509C60.1207 21.1222 60.2231 19.8935 60.0183 18.6648C59.5064 15.6953 58.1752 13.3403 55.6154 11.9068C53.7723 10.8828 51.8268 10.678 49.7789 10.8828C48.5502 10.9852 47.4239 11.3948 46.2975 12.1116C47.0143 13.2379 47.731 14.4666 48.4478 15.5929ZM164.255 22.9653C164.358 21.327 164.358 19.7911 163.948 18.2552C163.231 15.1834 161.593 12.9307 158.828 11.702C156.883 10.8828 154.835 10.7804 152.89 11.2924C152.07 11.4972 151.251 11.9068 150.33 12.2139C151.149 13.4427 151.866 14.6714 152.685 15.7977C156.678 14.057 159.545 16.1049 159.75 19.5863H155.04V23.0677H164.255V22.9653ZM41.5874 22.8629C41.7922 23.8869 41.997 24.9108 42.3042 25.8323C43.1233 28.4946 44.7616 30.4401 47.2191 31.464C48.9598 32.1808 50.8029 32.3856 52.5436 32.1808C54.6938 31.976 56.7417 31.1568 58.2776 29.3137C58.892 28.597 59.404 27.6754 59.7111 26.7539C58.2776 26.1395 56.9465 25.5252 55.6154 24.9108C55.513 25.1156 55.4106 25.3204 55.4106 25.5252C55.001 26.5491 54.2843 27.2659 53.3627 27.573C52.3388 27.9826 51.3148 27.8802 50.3933 27.7778C49.4717 27.6754 48.5502 27.2659 47.8334 26.5491C46.9119 25.6276 46.5023 24.5012 46.2975 23.1701C46.2975 23.0677 46.0927 22.7605 45.9904 22.7605C44.5568 22.8629 43.1233 22.8629 41.5874 22.8629ZM89.303 22.9653C89.5078 23.7845 89.5078 24.6036 89.7126 25.3204C90.4293 27.9826 91.7604 30.1329 94.2179 31.3616C97.1873 32.7951 100.157 32.8975 103.229 31.6688C105.174 30.8496 106.505 29.2113 107.427 27.0611C106.096 26.4467 104.764 25.8323 103.433 25.1156C103.331 25.3204 103.331 25.4228 103.229 25.6276C102.717 26.9587 101.795 27.7778 100.464 28.085C99.8496 28.1874 99.3376 28.1874 98.7232 28.1874C97.3921 28.085 96.2658 27.6754 95.3442 26.6515C94.6275 25.8323 94.2179 24.8084 94.0131 23.6821C94.0131 23.4773 93.8083 23.2725 93.7059 23.2725C92.17 22.9653 90.7365 22.9653 89.303 22.9653ZM159.75 25.1156C159.648 25.4228 159.545 25.7299 159.34 25.9347C158.828 26.9587 158.009 27.6754 156.985 27.9826C156.064 28.1874 155.142 28.2898 154.221 28.085C153.094 27.8802 152.07 27.2659 151.251 26.1395C150.739 25.3204 150.33 24.5012 150.227 23.4773C150.227 23.0677 150.023 22.9653 149.715 22.9653C148.589 22.9653 147.463 22.9653 146.336 22.9653C146.132 22.9653 145.927 22.9653 145.62 22.9653C145.722 23.6821 145.824 24.2964 145.927 24.9108C146.541 27.4706 147.668 29.5185 149.818 30.952C151.354 31.976 153.094 32.3856 154.938 32.4879C156.473 32.5903 158.009 32.2832 159.443 31.6688C161.491 30.7473 162.822 29.2113 163.641 26.9587C162.412 26.3443 161.184 25.7299 159.75 25.1156ZM125.141 32.7951C125.141 34.2286 125.55 35.5598 126.165 36.6861C127.496 38.9388 129.646 39.8603 132.001 40.2699C133.435 40.5771 134.868 40.4747 136.302 40.2699C138.554 39.8603 140.398 38.8364 141.831 36.8909C142.445 36.0717 142.855 35.1502 143.367 34.2286C141.831 33.6143 140.398 33.1023 138.964 32.5903C138.657 33.8191 138.043 34.7406 137.223 35.4574C136.097 36.2765 134.766 36.4813 133.537 36.3789C132.616 36.2765 131.694 36.0717 130.977 35.355C130.261 34.7406 129.953 33.8191 129.851 32.8975L125.141 32.7951ZM137.838 29.8257C137.223 28.8018 136.711 27.8802 136.199 26.9587C136.097 26.7539 135.892 26.6515 135.687 26.7539C134.766 27.0611 133.742 27.1635 132.718 26.8563C130.977 26.4467 129.953 25.218 129.441 23.3749C129.441 23.1701 129.237 22.9653 129.134 22.9653C127.701 22.9653 126.267 22.9653 124.731 22.9653C124.834 25.5252 126.472 29.0066 129.237 30.5425C132.104 32.1808 135.995 31.5664 137.838 29.8257Z" fill="#010101"/>
<path d="M0.425049 7.81099V2.99847H25.7164V13.9546C25.9211 13.8522 25.9211 13.7498 26.0235 13.7498C27.3547 11.8044 29.3001 10.9852 31.4504 10.7804C32.9863 10.678 34.5222 10.8828 35.8533 11.702C37.4917 12.7259 38.4132 14.3642 38.8228 16.3097C39.0276 17.3336 39.2324 18.46 39.2324 19.5863C39.2324 23.5797 39.2324 27.573 39.2324 31.5664C39.2324 31.6688 39.2324 31.7712 39.2324 31.8736H34.4198C34.4198 31.6688 34.4198 31.464 34.4198 31.2592C34.4198 27.573 34.4198 23.9892 34.4198 20.303C34.4198 19.0743 34.215 17.8456 33.6007 16.7193C33.0887 15.9001 32.4743 15.5929 31.6552 15.4905C29.5049 15.2857 27.969 16.3097 26.9451 18.2552C26.3307 19.3815 26.0235 20.6102 25.9211 21.9414C25.9211 22.2485 25.9211 22.4533 25.8187 22.7605H21.3134V7.81099H0.425049Z" fill="#010101"/>
<path d="M94.0132 0.745826C93.6036 1.87216 93.194 2.8961 92.7844 3.92004C91.1461 8.22058 89.5078 12.5211 87.8695 16.8217C86.8456 19.5863 85.7193 22.4533 84.6953 25.218C83.8762 27.3682 83.057 29.4161 82.3403 31.5664C82.2379 31.7712 82.0331 31.976 81.9307 31.976C80.3948 31.976 78.7565 31.976 77.1182 31.976C77.323 31.464 77.4253 30.952 77.6301 30.5425C80.9067 21.7366 84.081 12.9307 87.3576 4.12483C87.7671 3.10089 88.0743 2.07695 88.4839 1.05301C88.5863 0.84822 88.6887 0.643433 88.8935 0.643433C90.5318 0.643433 92.2725 0.643433 93.9108 0.643433C93.8084 0.643433 93.9108 0.745826 94.0132 0.745826Z" fill="#010101"/>
<path d="M62.6807 0.643433C62.8855 0.643433 62.9878 0.643433 63.1926 0.643433C68.1075 0.643433 73.0225 0.643433 78.0398 0.643433C78.5517 0.643433 78.6541 0.745826 78.6541 1.2578C78.6541 2.38413 78.6541 3.51046 78.6541 4.6368C78.6541 5.04637 78.5517 5.14877 78.1422 5.14877C75.6847 5.14877 73.1248 5.14877 70.6674 5.04637C70.4626 5.04637 70.3602 5.04637 70.053 5.04637C72.3057 10.9852 74.456 16.8217 76.7086 22.7605C76.1967 22.7605 75.7871 22.7605 75.3775 22.7605C74.1488 22.7605 73.0224 22.7605 71.7937 22.7605C71.5889 22.7605 71.3841 22.6581 71.2818 22.4533C68.7219 15.9001 66.1621 9.34692 63.6022 2.7937C63.3974 2.17934 63.0902 1.36019 62.6807 0.643433Z" fill="#010101"/>
<path d="M138.657 22.9653C139.066 21.1222 138.862 19.4839 138.042 17.948C137.428 16.8217 136.506 16.1049 135.278 15.6954C133.127 14.9786 130.465 15.4906 129.134 18.1528C127.803 17.2313 126.472 16.3097 125.243 15.4906C127.189 10.6781 135.073 8.73257 138.964 14.0571V11.2924H143.674V23.0677L138.657 22.9653Z" fill="#010101"/>
<path d="M8.41187 11.702C9.94777 11.702 11.3813 11.702 12.9172 11.702C13.0196 11.702 13.122 11.9068 13.2244 12.0091C13.2244 12.1115 13.2244 12.2139 13.2244 12.4187C13.2244 18.6648 13.2244 24.9108 13.2244 31.2592C13.2244 31.6688 13.0196 31.976 12.61 31.976C11.3813 31.976 10.1526 31.976 8.92383 31.976C8.51426 31.976 8.41187 31.8736 8.41187 31.464C8.41187 25.1156 8.41187 18.6648 8.41187 12.3163C8.41187 12.0091 8.41187 11.9068 8.41187 11.702Z" fill="#010101"/>
<path d="M116.13 14.2618C117.768 11.19 120.328 10.5756 123.4 10.7804C123.4 11.2924 123.4 11.702 123.4 12.1116C123.4 13.2379 123.298 14.2618 123.298 15.3882C123.298 15.9001 123.195 16.0025 122.683 15.9001C121.455 15.7977 120.226 15.7977 118.997 16.1049C117.359 16.5145 116.437 17.7432 116.13 19.3815C115.925 20.3031 115.925 21.327 115.925 22.2486C115.925 22.4533 115.925 22.7605 115.618 22.7605C114.185 22.7605 112.649 22.7605 111.113 22.7605C111.113 22.5557 111.113 22.3509 111.113 22.1462C111.113 18.5624 111.113 15.081 111.113 11.4972C111.113 10.9852 111.215 10.8828 111.727 10.8828C112.956 10.8828 114.185 10.8828 115.413 10.8828C115.823 10.8828 116.028 10.9852 116.028 11.4972C116.028 12.1116 116.028 12.8283 116.028 13.4427C116.028 13.6475 116.028 13.7499 116.028 13.9546C116.028 14.1594 116.13 14.2618 116.13 14.2618Z" fill="#010101"/>
<path d="M94.0132 12.1116C95.9587 10.9852 97.9042 10.678 100.054 10.9852C102.102 11.19 103.945 12.0092 105.379 13.6475C106.812 15.1834 107.529 17.1289 107.734 19.3815C107.836 20.4055 107.836 21.4294 107.836 22.4533C107.836 22.7605 107.734 22.9653 107.427 22.9653C104.56 22.9653 101.693 22.8629 98.7233 22.8629H98.6209V19.4839H103.229C103.126 17.3336 101.795 15.3882 99.7472 15.081C98.6209 14.8762 97.4946 15.081 96.4706 15.4906C96.3682 15.593 96.0611 15.4906 96.0611 15.3882C95.3443 14.3642 94.7299 13.2379 94.0132 12.214C94.0132 12.214 94.0132 12.214 94.0132 12.1116Z" fill="#010101"/>
<path d="M48.4477 15.5929C47.6286 14.3642 46.9118 13.2379 46.1951 12.1116C47.3214 11.3948 48.4477 10.9852 49.6765 10.8828C51.7243 10.678 53.6698 10.8828 55.5129 11.9068C58.0728 13.3403 59.5063 15.6953 59.9159 18.6648C60.1206 19.8935 60.0182 21.1222 60.1206 22.3509C60.1206 22.7605 60.0182 22.9653 59.6087 22.9653C59.0967 22.9653 58.5847 22.8629 57.9704 22.8629C55.8201 22.8629 53.6698 22.8629 51.4172 22.8629C51.2124 22.8629 51.11 22.8629 50.8028 22.8629V19.3815H55.3081C55.4105 17.2312 53.6698 15.081 51.7243 14.9786C50.7004 14.8762 49.5741 14.9786 48.4477 15.5929Z" fill="#010101"/>
<path d="M164.255 22.9653H155.04V19.4839H159.648C159.443 16.0025 156.576 13.9546 152.582 15.6953C151.866 14.569 151.046 13.4427 150.227 12.1115C151.149 11.8044 151.968 11.3948 152.787 11.19C154.835 10.7804 156.781 10.7804 158.726 11.5996C161.593 12.7259 163.231 14.9786 163.846 18.1528C164.255 19.7911 164.358 21.327 164.255 22.9653Z" fill="#010101"/>
<path d="M41.5874 22.8629C43.1233 22.8629 44.5568 22.8629 45.9903 22.8629C46.0927 22.8629 46.1951 23.0677 46.2975 23.2725C46.5023 24.6036 47.0143 25.7299 47.8334 26.6515C48.5502 27.3682 49.3693 27.7778 50.3933 27.8802C51.4172 27.9826 52.4412 28.085 53.3627 27.6754C54.2843 27.3682 55.001 26.5491 55.4106 25.6276C55.513 25.4228 55.6154 25.218 55.6154 25.0132C56.9465 25.6276 58.2776 26.2419 59.7111 26.8563C59.4039 27.8802 58.892 28.6994 58.2776 29.4161C56.7417 31.2592 54.7962 32.0784 52.5436 32.2832C50.7005 32.4879 48.8574 32.2832 47.2191 31.5664C44.7616 30.4401 43.1233 28.597 42.3042 25.9347C41.8946 24.9108 41.7922 23.8869 41.5874 22.8629Z" fill="#010101"/>
<path d="M89.2007 22.9653C90.7366 22.9653 92.0677 22.9653 93.5012 22.9653C93.6036 22.9653 93.8084 23.2725 93.8084 23.3749C94.0132 24.5012 94.4228 25.5252 95.1395 26.3443C96.0611 27.3683 97.1874 27.7778 98.5185 27.8802C99.1329 27.8802 99.6449 27.8802 100.259 27.7778C101.59 27.5731 102.512 26.7539 103.024 25.3204C103.126 25.218 103.126 25.0132 103.229 24.8084C104.56 25.4228 105.891 26.0371 107.222 26.7539C106.403 28.9042 105.072 30.5425 103.024 31.3616C100.054 32.5904 96.9826 32.5904 94.0132 31.0545C91.5557 29.8257 90.2246 27.6755 89.5079 25.0132C89.5079 24.5012 89.4055 23.7845 89.2007 22.9653Z" fill="#010101"/>
<path d="M159.75 25.1156C161.081 25.7299 162.412 26.3443 163.744 27.0611C162.822 29.2113 161.491 30.8496 159.545 31.7712C158.112 32.3855 156.576 32.6927 155.04 32.5903C153.197 32.4879 151.456 32.1807 149.92 31.0544C147.872 29.6209 146.644 27.573 146.029 25.0132C145.927 24.3988 145.825 23.7844 145.722 23.0677C146.029 23.0677 146.234 23.0677 146.439 23.0677C147.565 23.0677 148.692 23.0677 149.818 23.0677C150.125 23.0677 150.33 23.1701 150.33 23.5797C150.432 24.5012 150.739 25.4227 151.354 26.2419C152.071 27.3682 153.095 27.8802 154.323 28.1874C155.245 28.3922 156.166 28.3922 157.088 28.085C158.214 27.7778 158.931 27.1634 159.443 26.0371C159.545 25.6275 159.648 25.4227 159.75 25.1156Z" fill="#010101"/>
<path d="M125.141 32.7952H129.646C129.851 33.7167 130.158 34.5359 130.773 35.2526C131.489 35.9694 132.411 36.1742 133.332 36.2766C134.664 36.3789 135.892 36.2766 137.019 35.355C137.94 34.6382 138.452 33.7167 138.759 32.488C140.193 32.9999 141.626 33.5119 143.162 34.1263C142.65 35.0478 142.241 35.9694 141.626 36.7885C140.193 38.734 138.35 39.7579 136.097 40.1675C134.664 40.3723 133.23 40.4747 131.796 40.1675C129.441 39.7579 127.291 38.8364 125.96 36.5837C125.55 35.4574 125.141 34.2287 125.141 32.7952Z" fill="#010101"/>
<path d="M137.838 29.8257C135.995 31.5664 132.104 32.1808 129.237 30.5425C126.472 29.0066 124.834 25.4228 124.731 22.9653C126.165 22.9653 127.598 22.9653 129.134 22.9653C129.237 22.9653 129.441 23.1701 129.441 23.3749C129.953 25.1156 130.977 26.3443 132.718 26.8563C133.742 27.1635 134.663 27.0611 135.687 26.7539C135.995 26.6515 136.097 26.7539 136.199 26.9587C136.711 27.8802 137.223 28.8018 137.838 29.8257Z" fill="#010101"/>
</g>
</svg>
