<svg width="13" height="15" viewBox="0 0 13 15" fill="none" xmlns="http://www.w3.org/2000/svg">
<path d="M11.3515 3.17548C11.251 3.12353 11.1531 3.06657 11.0583 3.00484C10.7824 2.82254 10.5296 2.60773 10.3051 2.36506C9.74342 1.72248 9.53364 1.0706 9.45637 0.614191H9.45947C9.39493 0.235349 9.42161 -0.00976562 9.42565 -0.00976562H6.86734V9.88107C6.86734 10.0139 6.86734 10.1451 6.86176 10.2748C6.86176 10.2909 6.86021 10.3058 6.85928 10.3232C6.85928 10.3303 6.85928 10.3378 6.85773 10.3452V10.3508C6.83076 10.7057 6.71698 11.0485 6.52639 11.3491C6.33581 11.6497 6.07427 11.8989 5.76477 12.0747C5.44221 12.2582 5.07737 12.3544 4.70625 12.354C3.5143 12.354 2.54827 11.3822 2.54827 10.182C2.54827 8.9819 3.5143 8.01014 4.70625 8.01014C4.93189 8.00992 5.15613 8.04542 5.37066 8.11532L5.37376 5.5109C4.72251 5.42679 4.06089 5.47854 3.43063 5.66288C2.80038 5.84722 2.21518 6.16017 1.71195 6.58195C1.271 6.96501 0.900293 7.42207 0.61651 7.93257C0.508517 8.11873 0.101063 8.86679 0.0517221 10.0809C0.020689 10.77 0.227675 11.4839 0.326358 11.779V11.7852C0.388422 11.959 0.628922 12.5519 1.02086 13.0518C1.3369 13.4527 1.7103 13.8049 2.12903 14.097V14.0908L2.13523 14.097C3.37373 14.9385 4.74691 14.8833 4.74691 14.8833C4.98462 14.8736 5.78091 14.8833 6.68518 14.4548C7.68815 13.9798 8.25914 13.2721 8.25914 13.2721C8.62392 12.8491 8.91398 12.3672 9.11688 11.847C9.34838 11.2385 9.42565 10.5088 9.42565 10.2171V4.96978C9.45669 4.9884 9.87003 5.26175 9.87003 5.26175C9.87003 5.26175 10.4656 5.64338 11.3946 5.89191C12.0612 6.06876 12.9593 6.10599 12.9593 6.10599V3.56674C12.6446 3.60087 12.0056 3.50158 11.3515 3.17548Z" fill="white" fill-opacity="0.9"/>
</svg>
