<svg width="65" height="43" viewBox="0 0 65 43" fill="none" xmlns="http://www.w3.org/2000/svg">
<path d="M4.49381 31.9638L4.42553 0.904878H0.322876V0.439636H15.4379V0.904878H11.3376L11.4287 34.9592C12.3363 38.8587 13.9502 41.8177 19.4636 41.8617C24.9772 41.9058 28.7254 38.5851 30.1183 34.047V0.904878H25.4251L25.4249 0.453334H63.8381L63.9189 15.3628H63.5492C62.8366 5.73633 59.1394 2.0982 52.6728 1.03683C50.4474 0.671612 48.1143 0.942346 45.1622 0.919313V19.9478C47.7318 20.1472 50.47 19.984 52.3144 18.3924C53.9916 16.9451 54.4662 13.601 54.5894 12.2425H54.9138V28.8104H54.5625C54.4605 28.8104 54.3259 24.6527 52.3144 22.6802C50.2901 20.6947 47.7106 20.2066 45.1622 20.6796V41.0061C48.7617 41.0061 51.6316 41.3124 54.1233 40.6262C61.6963 38.5402 64.3623 32.1209 64.3424 25.6826H64.7632V41.4873H34.6332V41.0061H38.0397V0.904878H30.6792V34.047C29.8449 37.2179 26.7957 42.464 18.9813 42.4283C11.7156 42.395 4.50953 39.1042 4.49381 31.9638Z" fill="black"/>
</svg>
