<svg width="15" height="14" viewBox="0 0 15 14" fill="none" xmlns="http://www.w3.org/2000/svg">
<path d="M8.81118 6.86846L7.17348 6.10429C7.03056 6.03794 6.91316 6.11231 6.91316 6.27054V7.70992C6.91316 7.86815 7.03056 7.94252 7.17348 7.87617L8.81046 7.112C8.9541 7.04492 8.9541 6.93554 8.81118 6.86846ZM7.64233 -0.00976562C3.77629 -0.00976562 0.642334 3.12419 0.642334 6.99023C0.642334 10.8562 3.77629 13.9902 7.64233 13.9902C11.5083 13.9902 14.6423 10.8562 14.6423 6.99023C14.6423 3.12419 11.5083 -0.00976562 7.64233 -0.00976562ZM7.64233 9.83398C4.05921 9.83398 3.9965 9.51096 3.9965 6.99023C3.9965 4.4695 4.05921 4.14648 7.64233 4.14648C11.2254 4.14648 11.2881 4.4695 11.2881 6.99023C11.2881 9.51096 11.2254 9.83398 7.64233 9.83398Z" fill="white" fill-opacity="0.9"/>
</svg>
